# xmcd
#
# Track frame offsets: 
#        150
#        57376
#        79737
#        92269
#        111349
#        141331
#        163072
#        180007
#        193124
#        214371
#        228094
#        241957
#
# Disc length: 4414 seconds
#
# Revision: 1
# Processed by: cddbd v1.5.2PL0 Copyright (c) Steve Scherf et al.
# Submitted via: ExactAudioCopy v0.99pb3
#
DISCID=9c113c0c
DTITLE=Mock Duck - Test Record (1968)
DYEAR=1968
DGENRE=blues-rock
TTITLE0=Home Made Jam
TTITLE1=Ground Hog
TTITLE2=Hurt on Me
TTITLE3=Sitting on Top of the World
TTITLE4=My Time
TTITLE5=Fat Man
TTITLE6=Crosscut Saw
TTITLE7=Easter Dog
TTITLE8=Funky Song
TTITLE9=Do-Re-Mi
TTITLE10=Playing Games
TTITLE11=Jazz Mock
EXTD=Release Date: 2000 08 22\nLabel: Gear Fab
EXTT0=
EXTT1=
EXTT2=
EXTT3=
EXTT4=
EXTT5=
EXTT6=
EXTT7=
EXTT8=
EXTT9=
EXTT10=
EXTT11=
PLAYORDER=
